<?xml version="1.0"?>
<svg xmlns="http://www.w3.org/2000/svg" xmlns:xlink="http://www.w3.org/1999/xlink" viewBox="0 0 64 64" width="512" height="512"><defs><linearGradient id="New_Gradient_Swatch_2" x1="30" y1="3.919" x2="30" y2="65.9" gradientUnits="userSpaceOnUse"><stop offset="0" stop-color="#fc5c7d"/><stop offset="0.129" stop-color="#f35e85"/><stop offset="0.343" stop-color="#d9659b"/><stop offset="0.616" stop-color="#b070bf"/><stop offset="0.934" stop-color="#777ff0"/><stop offset="1" stop-color="#6a82fb"/></linearGradient><linearGradient id="New_Gradient_Swatch_2-2" x1="37.5" y1="3.919" x2="37.5" y2="65.9" xlink:href="#New_Gradient_Swatch_2"/><linearGradient id="New_Gradient_Swatch_2-3" x1="50.5" y1="3.919" x2="50.5" y2="65.9" xlink:href="#New_Gradient_Swatch_2"/><linearGradient id="New_Gradient_Swatch_2-4" x1="36" y1="3.919" x2="36" y2="65.9" xlink:href="#New_Gradient_Swatch_2"/><linearGradient id="New_Gradient_Swatch_2-5" x1="3" y1="3.919" x2="3" y2="65.9" xlink:href="#New_Gradient_Swatch_2"/><linearGradient id="New_Gradient_Swatch_2-6" x1="44" y1="3.919" x2="44" y2="65.9" xlink:href="#New_Gradient_Swatch_2"/><linearGradient id="New_Gradient_Swatch_2-7" x1="50" y1="3.919" x2="50" y2="65.9" xlink:href="#New_Gradient_Swatch_2"/><linearGradient id="New_Gradient_Swatch_2-8" x1="48" y1="3.919" x2="48" y2="65.9" xlink:href="#New_Gradient_Swatch_2"/><linearGradient id="New_Gradient_Swatch_2-14" x1="23" y1="3.919" x2="23" y2="65.9" xlink:href="#New_Gradient_Swatch_2"/><linearGradient id="New_Gradient_Swatch_2-16" x1="16" y1="3.919" x2="16" y2="65.9" xlink:href="#New_Gradient_Swatch_2"/><linearGradient id="New_Gradient_Swatch_2-18" x1="11" y1="3.919" x2="11" y2="65.9" xlink:href="#New_Gradient_Swatch_2"/><linearGradient id="New_Gradient_Swatch_2-19" x1="25" y1="3.919" x2="25" y2="65.9" xlink:href="#New_Gradient_Swatch_2"/></defs><title>Print-media-Poster-Flyer-Brochure</title><g id="_001GradL" data-name="001GradL"><path d="M6,48H20v9a1,1,0,0,0,1,1H57a1,1,0,0,0,1-1V17a1,1,0,0,0-1-1H43a1,1,0,0,0-.707.293L40,18.586V7a1,1,0,0,0-1-1H7A1,1,0,0,0,6,7V40H3a1,1,0,0,0-1,1v3A4,4,0,0,0,6,48Zm16,8V54H34.586l2,2Zm34,0H41.414l2-2H56ZM43.414,18H56V52H43a1,1,0,0,0-.707.293L40,54.586V49H38v5.586l-2.293-2.293A1,1,0,0,0,35,52H22V48H36a4,4,0,0,0,4-4V21.414ZM8,8H38V44a2,2,0,0,1-4,0V41a1,1,0,0,0-1-1H8ZM4,42H32v2a3.97,3.97,0,0,0,.537,2H6a2,2,0,0,1-2-2Z" style="fill:url(#New_Gradient_Swatch_2)"/><path d="M42,6v6h2V6a4,4,0,0,0-4-4H31V4h9A2,2,0,0,1,42,6Z" style="fill:url(#New_Gradient_Swatch_2-2)"/><path d="M60,58a2,2,0,0,1-2,2H39v2H58a4,4,0,0,0,4-4V49H60Z" style="fill:url(#New_Gradient_Swatch_2-3)"/><rect x="35" y="60" width="2" height="2" style="fill:url(#New_Gradient_Swatch_2-4)"/><rect x="2" y="18" width="2" height="18" style="fill:url(#New_Gradient_Swatch_2-5)"/><rect x="43" y="22" width="2" height="2" style="fill:url(#New_Gradient_Swatch_2-6)"/><rect x="47" y="22" width="6" height="2" style="fill:url(#New_Gradient_Swatch_2-7)"/><rect x="43" y="26" width="10" height="2" style="fill:url(#New_Gradient_Swatch_2-8)"/><rect x="43" y="38" width="2" height="2" style="fill:url(#New_Gradient_Swatch_2-6)"/><rect x="47" y="38" width="6" height="2" style="fill:url(#New_Gradient_Swatch_2-7)"/><rect x="43" y="42" width="10" height="2" style="fill:url(#New_Gradient_Swatch_2-8)"/><rect x="43" y="46" width="10" height="2" style="fill:url(#New_Gradient_Swatch_2-8)"/><rect x="43" y="30" width="10" height="2" style="fill:url(#New_Gradient_Swatch_2-8)"/><path d="M11,32H35a1,1,0,0,0,1-1V11a1,1,0,0,0-1-1H11a1,1,0,0,0-1,1V31A1,1,0,0,0,11,32Zm1-2V26.46l5.947-5.1,7.346,7.345,1.414-1.414L25.414,26,29,22.414l5,5V30ZM34,12V24.586l-4.293-4.293a1,1,0,0,0-1.414,0L24,24.586l-5.293-5.293a1,1,0,0,0-1.357-.052L12,23.826V12Z" style="fill:url(#New_Gradient_Swatch_2-14)"/><path d="M23,20a3,3,0,1,0-3-3A3,3,0,0,0,23,20Zm0-4a1,1,0,1,1-1,1A1,1,0,0,1,23,16Z" style="fill:url(#New_Gradient_Swatch_2-14)"/><rect x="15" y="14" width="2" height="2" style="fill:url(#New_Gradient_Swatch_2-16)"/><rect x="29" y="16" width="2" height="2" style="fill:url(#New_Gradient_Swatch_2)"/><rect x="10" y="34" width="2" height="2" style="fill:url(#New_Gradient_Swatch_2-18)"/><rect x="14" y="34" width="22" height="2" style="fill:url(#New_Gradient_Swatch_2-19)"/></g></svg>
